<?xml version="1.0" standalone="no"?><!DOCTYPE svg PUBLIC "-//W3C//DTD SVG 1.1//EN" "http://www.w3.org/Graphics/SVG/1.1/DTD/svg11.dtd"><svg t="1569402037343" class="icon" viewBox="0 0 1024 1024" version="1.1" xmlns="http://www.w3.org/2000/svg" p-id="2099" xmlns:xlink="http://www.w3.org/1999/xlink" width="200" height="200"><defs><style type="text/css"></style></defs><path d="M885.76 878.08H138.24c-50.688 0-92.16-41.472-92.16-92.16v-542.72c0-50.688 41.472-92.16 92.16-92.16h747.52c50.688 0 92.16 41.472 92.16 92.16v542.72c0 50.688-41.472 92.16-92.16 92.16zM138.24 212.48c-16.896 0-30.72 13.824-30.72 30.72v542.72c0 16.896 13.824 30.72 30.72 30.72h747.52c16.896 0 30.72-13.824 30.72-30.72v-542.72c0-16.896-13.824-30.72-30.72-30.72H138.24z" p-id="2100"></path><path d="M498.176 585.216L215.552 348.16c-8.704-7.168-9.728-20.48-2.56-28.672 7.168-8.704 20.48-9.728 28.672-2.56l282.624 237.056c8.704 7.168 9.728 20.48 2.56 28.672-7.168 8.704-20.48 9.728-28.672 2.56z" p-id="2101"></path><path d="M524.8 585.216L806.912 348.16c8.704-7.168 9.728-20.48 2.56-28.672-7.168-8.704-20.48-9.728-28.672-2.56l-282.624 237.056c-8.704 7.168-9.728 20.48-2.56 28.672 7.68 8.704 20.48 9.728 29.184 2.56z" p-id="2102"></path></svg>