<?xml version="1.0" standalone="no"?><!DOCTYPE svg PUBLIC "-//W3C//DTD SVG 1.1//EN" "http://www.w3.org/Graphics/SVG/1.1/DTD/svg11.dtd"><svg t="1569402010979" class="icon" viewBox="0 0 1024 1024" version="1.1" xmlns="http://www.w3.org/2000/svg" p-id="1969" xmlns:xlink="http://www.w3.org/1999/xlink" width="200" height="200"><defs><style type="text/css"></style></defs><path d="M773.632 960H234.496l-4.096-1.024c-6.144-2.048-155.648-46.08-165.888-205.824v-1.024c-0.512-7.68-6.144-182.784 70.144-287.744 10.24-14.336 62.464-87.04 101.888-110.08 4.608-3.584 15.36-11.776 27.648-20.48-17.92-35.328-44.544-105.472-13.824-165.888l1.024-2.048c20.992-35.328 81.92-94.208 166.4-70.656 14.848-11.264 47.616-31.232 91.136-31.744 9.728-0.512 58.368-2.048 97.792 29.184 1.536 1.024 3.072 2.048 4.096 3.072 10.752-4.096 47.104-14.848 86.016 4.096l1.024 0.512c7.168 3.584 72.704 38.912 91.648 99.328l1.024 3.584c0.512 3.072 10.752 62.464-29.184 126.464 30.208 16.384 78.848 49.664 119.808 110.592 4.096 6.144 97.792 147.968 75.776 317.44-1.024 6.656-22.528 166.912-179.712 201.216l-3.584 1.024z m-529.92-61.44h523.264c112.64-27.136 129.024-147.456 129.024-148.48 18.944-146.944-65.024-274.432-66.048-275.456-51.712-76.8-117.76-99.84-118.272-99.84l-1.536-0.512c-11.264-4.096-18.944-12.288-22.528-23.04-3.072-9.728-2.048-20.992 3.584-30.208l1.536-2.048 1.536-2.048c39.424-45.056 36.864-91.136 35.84-100.864-10.752-29.184-46.08-53.248-59.904-60.928-18.944-8.704-37.376-1.536-37.888-1.536-9.216 3.584-40.96 9.728-56.832-7.168-1.024-1.024-4.096-3.072-6.144-4.608-23.552-18.432-56.832-16.384-57.344-16.384h-2.048C476.16 125.952 450.56 147.968 450.56 148.48l-3.584 3.072-4.096 2.048c-13.824 6.144-29.184 4.608-34.816 3.584l-3.584-1.024c-58.368-17.92-93.696 31.744-99.328 41.472-20.48 42.496 10.24 105.472 24.064 126.464l2.048 3.072 1.024 3.584c6.144 15.872 0 33.28-14.848 43.52l-2.56 1.536c-19.456 11.264-41.984 29.184-41.984 29.184l-2.048 1.536-2.56 1.536C248.32 417.792 207.36 467.968 184.32 500.736c-62.464 85.504-58.88 240.64-58.88 248.832 7.168 104.96 98.816 142.336 118.272 148.992zM573.44 144.896c0.512 0.512 0.512 1.024 1.024 1.536 0-0.512-0.512-1.024-1.024-1.536z m48.128-38.4z m-10.752-10.24z" p-id="1970"></path><path d="M636.928 619.52H387.072c-15.872 0-28.672-13.824-28.672-30.72s12.8-30.72 28.672-30.72h249.856c15.872 0 28.672 13.824 28.672 30.72s-12.8 30.72-28.672 30.72z" p-id="1971"></path><path d="M403.456 431.616l137.728 137.728c11.776 11.776 11.776 31.744 0 43.52s-31.744 11.776-43.52 0L359.936 475.136c-11.776-11.776-11.776-31.744 0-43.52 12.288-11.776 31.744-11.776 43.52 0z" p-id="1972"></path><path d="M482.816 569.344l137.728-137.728c11.776-11.776 31.744-11.776 43.52 0s11.776 31.744 0 43.52l-137.728 137.728c-11.776 11.776-31.744 11.776-43.52 0-11.776-12.288-11.776-31.744 0-43.52z" p-id="1973"></path><path d="M542.72 607.744v207.872c0 13.312-13.824 24.064-30.72 24.064s-30.72-10.752-30.72-24.064v-207.872c0-13.312 13.824-24.064 30.72-24.064s30.72 10.752 30.72 24.064z" p-id="1974"></path><path d="M636.928 732.16H387.072c-15.872 0-28.672-13.824-28.672-30.72s12.8-30.72 28.672-30.72h249.856c15.872 0 28.672 13.824 28.672 30.72s-12.8 30.72-28.672 30.72z" p-id="1975"></path></svg>