<?xml version="1.0" standalone="no"?><!DOCTYPE svg PUBLIC "-//W3C//DTD SVG 1.1//EN" "http://www.w3.org/Graphics/SVG/1.1/DTD/svg11.dtd"><svg t="1569402238163" class="icon" viewBox="0 0 1024 1024" version="1.1" xmlns="http://www.w3.org/2000/svg" p-id="2978" xmlns:xlink="http://www.w3.org/1999/xlink" width="200" height="200"><defs><style type="text/css"></style></defs><path d="M955.68152 227.327472c0-20.390399-16.58984-36.919864-37.050848-36.919864L296.064484 190.407608c-4.54041 0-8.887414 0.816598-12.906961 2.304486L249.814114 89.716324c-5.824659-17.46272-23.482831-27.691689-41.148166-24.790616-0.51063-0.021489-1.022283-0.038886-1.537006-0.038886L103.365694 64.886823c-20.466124 0-37.058011 16.530488-37.058011 36.919864 0 20.387329 16.591887 36.916794 37.058011 36.916794l84.443227 0 148.250462 457.939757L227.71377 730.032782c-12.879332 15.84999-10.423397 39.09439 5.487991 51.92051 10.015098 8.075933 22.969131 10.090822 34.406624 6.52767l628.78175 0c20.470217 0 37.061081-16.531512 37.061081-36.920888 0-20.386306-16.590863-36.916794-37.061081-36.916794l-560.833195 0 59.982116-73.832566 404.50373 0c20.218484 0 36.643572-16.135492 37.038568-36.182061 0.037862-0.110517 0.081864-0.218988 0.118704-0.329505L953.602162 253.804497c2.060939-6.202259 2.371-12.559037 1.213641-18.547425C955.376575 232.700853 955.68152 230.05049 955.68152 227.327472zM771.533476 566.972009 404.319024 566.972009l-98.003058-302.727743 565.756321 0L771.533476 566.972009zM518.407432 493.136374c20.466124 0 37.056987-16.530488 37.056987-36.918841l0-95.986121c0-20.389376-16.590863-36.917818-37.056987-36.917818-20.465101 0-37.054941 16.528442-37.054941 36.917818l0 95.986121C481.352491 476.605885 497.942331 493.136374 518.407432 493.136374zM681.461041 493.136374c20.466124 0 37.054941-16.530488 37.054941-36.918841l0-95.986121c0-20.389376-16.588817-36.917818-37.054941-36.917818s-37.055964 16.528442-37.055964 36.917818l0 95.986121C644.405077 476.605885 660.994917 493.136374 681.461041 493.136374zM347.945085 840.165088c-32.748868 0-59.295478 26.446325-59.295478 59.07035 0 32.620955 26.546609 59.069327 59.295478 59.069327 32.745798 0 59.291384-26.448372 59.291384-59.069327C407.235446 866.61039 380.690884 840.165088 347.945085 840.165088zM807.457664 840.165088c-32.749892 0-59.294454 26.446325-59.294454 59.07035 0 32.620955 26.544563 59.069327 59.294454 59.069327 32.744775 0 59.290361-26.448372 59.290361-59.069327C866.749048 866.61039 840.202439 840.165088 807.457664 840.165088z" p-id="2979"></path></svg>