<svg width="1024" height="1024" xmlns="http://www.w3.org/2000/svg" class="icon">
 <defs>
  <style type="text/css"/>
 </defs>
 <g>
  <title>background</title>
  <rect fill="none" id="canvas_background" height="402" width="582" y="-1" x="-1"/>
 </g>
 <g>
  <title>Layer 1</title>
  <path stroke="null" id="svg_1" d="m993.170757,190.442084l-476.569742,197.636802l-477.659037,-197.636802l476.556865,-187.648404l477.671913,187.648404zm-993.491204,82.165723l475.481637,202.065741l0,547.383089c-37.804192,-17.00746 -77.05255,-34.809112 -117.779071,-53.301228c-34.8877,-15.522792 -74.339866,-32.911843 -118.322551,-52.163575c-43.987355,-19.254122 -88.143378,-38.504678 -132.500863,-57.762377c-15.990297,-7.394698 -30.538738,-17.195861 -43.626611,-29.401111c-13.090207,-12.200485 -24.360245,-25.543377 -33.799572,-39.960714c-9.455729,-14.448347 -16.72235,-29.811347 -21.815062,-46.093754c-5.091545,-16.281219 -7.639074,-32.183224 -7.639074,-47.738203l0,-423.027866l0.001167,0zm1022.930117,0l0,420.81458c0,19.221935 -3.632131,37.93704 -10.899908,56.05352c-7.280676,18.147479 -16.550167,35.153738 -27.821384,51.056944c-11.25715,15.934192 -23.805056,30.003325 -37.621456,42.206187c-13.802344,12.236261 -27.260335,21.654632 -40.350542,28.327867c-38.536233,16.28003 -78.87272,33.288667 -121.042252,51.054555c-42.168365,17.769453 -81.060661,34.051873 -116.692123,48.877044c-41.441004,17.738455 -82.147609,34.778102 -122.142077,51.058132l0,-547.383089l476.569742,-202.065741zm0,0"/>
 </g>
</svg>